<svg width="200" height="200" xmlns="http://www.w3.org/2000/svg">
  <polygon points="50,15 58,35 79,35 62,48 68,68 50,56 32,68 38,48 21,35 42,35" fill="#ffe066"/>
  <polygon points="120,60 124,70 135,70 126,77 130,87 120,80 110,87 114,77 105,70 116,70" fill="#b5e0ff"/>
  <polygon points="160,120 164,130 175,130 166,137 170,147 160,140 150,147 154,137 145,130 156,130" fill="#ffd6e0"/>
  <polygon points="60,160 64,170 75,170 66,177 70,187 60,180 50,187 54,177 45,170 56,170" fill="#e0c3fc"/>
</svg> 