<svg width="120" height="120" viewBox="0 0 120 120" fill="none" xmlns="http://www.w3.org/2000/svg">
  <ellipse cx="60" cy="110" rx="40" ry="10" fill="#e0c3fc" opacity="0.25"/>
  <ellipse cx="60" cy="70" rx="32" ry="36" fill="#ffd6e0"/>
  <ellipse cx="60" cy="60" rx="22" ry="24" fill="#fff"/>
  <ellipse cx="60" cy="60" rx="18" ry="20" fill="#fcd5ce"/>
  <ellipse cx="54" cy="58" rx="2.5" ry="3.5" fill="#222"/>
  <ellipse cx="66" cy="58" rx="2.5" ry="3.5" fill="#222"/>
  <path d="M56 68 Q60 72 64 68" stroke="#e29578" stroke-width="1.5" fill="none"/>
  <!-- Dúhová maľba -->
  <path d="M60 60 Q65 55 70 60 Q75 65 70 70 Q65 75 60 70 Q55 65 60 60" stroke="#b5e0ff" stroke-width="2" fill="none"/>
  <path d="M60 62 Q64 58 68 62 Q72 66 68 70 Q64 74 60 70 Q56 66 60 62" stroke="#ffe066" stroke-width="2" fill="none"/>
</svg> 