<?xml version="1.0" encoding="UTF-8"?>
<svg width="400" height="400" viewBox="0 0 400 400" xmlns="http://www.w3.org/2000/svg">
    <!-- Krídla -->
    <g class="wings">
        <!-- Ľavé krídlo -->
        <path d="M160,180 C140,160 120,170 110,190 C100,210 110,230 130,240 C150,250 170,240 180,220 C190,200 180,180 160,180" 
              fill="#FFD700" opacity="0.9">
            <animate attributeName="opacity" values="0.9;0.7;0.9" dur="1s" repeatCount="indefinite"/>
            <animateTransform attributeName="transform" type="rotate" values="-5;5;-5" dur="0.8s" repeatCount="indefinite"/>
        </path>
        <!-- Pravé krídlo -->
        <path d="M240,180 C260,160 280,170 290,190 C300,210 290,230 270,240 C250,250 230,240 220,220 C210,200 220,180 240,180" 
              fill="#FFD700" opacity="0.9">
            <animate attributeName="opacity" values="0.9;0.7;0.9" dur="1s" repeatCount="indefinite"/>
            <animateTransform attributeName="transform" type="rotate" values="5;-5;5" dur="0.8s" repeatCount="indefinite"/>
        </path>
    </g>

    <!-- Telo a šaty -->
    <g class="body">
        <!-- Šaty -->
        <path d="M200,200 C200,200 180,220 180,260 C180,280 190,290 200,290 C210,290 220,280 220,260 C220,220 200,200 200,200" 
              fill="#00BFFF"/>
        <!-- Telo -->
        <circle cx="200" cy="190" r="15" fill="#FFE4E1"/>
        <!-- Ruky -->
        <path d="M185,200 C175,210 170,220 175,230" stroke="#FFE4E1" stroke-width="4" fill="none"/>
        <path d="M215,200 C225,210 230,220 225,230" stroke="#FFE4E1" stroke-width="4" fill="none"/>
    </g>

    <!-- Hlava a vlasy -->
    <g class="head">
        <!-- Vlasy -->
        <path d="M200,170 C200,170 190,160 180,165 C170,170 175,180 185,185 C195,190 200,185 200,185" 
              fill="#FFD700"/>
        <path d="M200,170 C200,170 210,160 220,165 C230,170 225,180 215,185 C205,190 200,185 200,185" 
              fill="#FFD700"/>
        <!-- Hlava -->
        <circle cx="200" cy="175" r="12" fill="#FFE4E1"/>
        <!-- Oči -->
        <circle cx="195" cy="173" r="2" fill="#000"/>
        <circle cx="205" cy="173" r="2" fill="#000"/>
        <!-- Ústa -->
        <path d="M195,180 Q200,183 205,180" stroke="#FF69B4" stroke-width="1" fill="none"/>
    </g>

    <!-- Čarovná palička -->
    <g class="wand">
        <!-- Palička -->
        <line x1="230" y1="220" x2="250" y2="200" stroke="#FFD700" stroke-width="3"/>
        <!-- Hviezda na konci -->
        <path d="M250,200 L252,195 L255,200 L260,200 L255,205 L260,210 L255,210 L252,215 L250,210 L245,210 L250,205 L245,200 Z" 
              fill="#FFD700">
            <animate attributeName="opacity" values="1;0.6;1" dur="1.5s" repeatCount="indefinite"/>
        </path>
    </g>

    <!-- Magické iskry -->
    <g class="sparkles">
        <circle cx="245" cy="205" r="2" fill="#FFD700">
            <animate attributeName="opacity" values="1;0;1" dur="1s" repeatCount="indefinite"/>
            <animate attributeName="r" values="2;3;2" dur="1s" repeatCount="indefinite"/>
        </circle>
        <circle cx="240" cy="210" r="1.5" fill="#FFD700">
            <animate attributeName="opacity" values="1;0;1" dur="1.2s" repeatCount="indefinite"/>
            <animate attributeName="r" values="1.5;2.5;1.5" dur="1.2s" repeatCount="indefinite"/>
        </circle>
    </g>

    <!-- Magická stopa -->
    <path class="magical-trail" d="M180,260 Q200,280 220,260" 
          stroke="#FFD700" stroke-width="3" fill="none" opacity="0.8">
        <animate attributeName="opacity" values="0.8;0.4;0.8" dur="2s" repeatCount="indefinite"/>
    </path>
</svg> 