<svg width="340" height="260" viewBox="0 0 340 260" fill="none" xmlns="http://www.w3.org/2000/svg">
  <ellipse cx="170" cy="220" rx="150" ry="30" fill="#e0c3fc" opacity="0.25"/>
  <circle cx="110" cy="120" r="50" fill="#ffe6fa"/>
  <circle cx="230" cy="110" r="55" fill="#b5e0ff"/>
  <!-- Dieťa -->
  <ellipse cx="110" cy="140" rx="32" ry="38" fill="#ffd6e0"/>
  <ellipse cx="110" cy="120" rx="22" ry="24" fill="#fff"/>
  <ellipse cx="110" cy="120" rx="18" ry="20" fill="#fcd5ce"/>
  <ellipse cx="100" cy="115" rx="3" ry="4" fill="#222"/>
  <ellipse cx="120" cy="115" rx="3" ry="4" fill="#222"/>
  <path d="M104 128 Q110 134 116 128" stroke="#e29578" stroke-width="2" fill="none"/>
  <!-- Motýľ na tvári -->
  <path d="M110 120 Q100 110 110 110 Q120 110 110 120" stroke="#b5e0ff" stroke-width="2" fill="#ffe066"/>
  <circle cx="110" cy="120" r="2" fill="#b5e0ff"/>
  <!-- Žena -->
  <ellipse cx="230" cy="140" rx="36" ry="44" fill="#ffe066"/>
  <ellipse cx="230" cy="120" rx="26" ry="28" fill="#fff"/>
  <ellipse cx="230" cy="120" rx="22" ry="24" fill="#fcd5ce"/>
  <ellipse cx="220" cy="115" rx="3.5" ry="4.5" fill="#222"/>
  <ellipse cx="240" cy="115" rx="3.5" ry="4.5" fill="#222"/>
  <path d="M224 130 Q230 136 236 130" stroke="#e29578" stroke-width="2" fill="none"/>
  <!-- Ruka ženy -->
  <rect x="200" y="150" width="12" height="38" rx="6" fill="#fcd5ce" transform="rotate(-10 200 150)"/>
  <!-- Štetec -->
  <rect x="205" y="180" width="18" height="3" rx="1.5" fill="#b5e0ff" transform="rotate(-20 205 180)"/>
  <rect x="222" y="182" width="6" height="3" rx="1.5" fill="#ffe066"/>
</svg> 